<?xml version="1.0" standalone="no"?>
<!DOCTYPE svg PUBLIC "-//W3C//DTD SVG 20010904//EN"
 "http://www.w3.org/TR/2001/REC-SVG-20010904/DTD/svg10.dtd">
<svg version="1.0" xmlns="http://www.w3.org/2000/svg"
 width="1094.000000pt" height="476.000000pt" viewBox="0 0 1094.000000 476.000000"
 preserveAspectRatio="xMidYMid meet">

<g transform="translate(0.000000,476.000000) scale(0.100000,-0.100000)"
fill="#000000" stroke="none">
<path d="M30 2375 l0 -2365 5435 0 5435 0 0 2365 0 2365 -5435 0 -5435 0 0
-2365z m10495 0 l0 -1990 -5060 0 -5060 0 -3 1980 c-1 1089 0 1986 3 1993 3
10 1021 12 5062 10 l5058 -3 0 -1990z"/>
<path d="M9832 4078 c-17 -17 -15 -55 4 -62 9 -3 45 -6 80 -6 l64 0 0 -230 0
-230 -59 59 c-278 278 -733 77 -733 -324 0 -334 329 -551 619 -409 31 15 82
53 114 85 l59 59 0 -85 0 -85 109 0 c102 0 111 2 125 22 20 28 20 33 0 52 -11
12 -35 16 -85 16 l-69 0 0 575 0 575 -108 0 c-71 0 -112 -4 -120 -12z m-69
-448 c74 -35 142 -102 179 -178 31 -62 33 -74 33 -167 0 -88 -3 -107 -27 -158
-33 -70 -115 -154 -183 -187 -42 -20 -65 -25 -140 -25 -77 0 -98 4 -147 27
-219 102 -282 392 -127 589 92 117 280 162 412 99z"/>
<path d="M853 4003 c-19 -7 -16 -60 3 -67 9 -3 45 -6 80 -6 l64 0 0 -495 0
-495 -64 0 c-79 0 -96 -6 -96 -34 0 -44 10 -46 286 -46 225 0 265 2 278 16 20
19 20 29 0 48 -13 13 -43 16 -170 16 l-154 0 0 195 0 195 158 0 c109 0 176 5
217 15 121 32 219 106 265 200 34 72 34 179 -1 255 -47 100 -143 175 -257 199
-52 11 -583 15 -609 4z m624 -88 c91 -27 174 -120 189 -212 13 -80 -36 -178
-115 -230 -75 -51 -134 -63 -313 -63 l-158 0 0 260 0 260 173 0 c125 0 187 -4
224 -15z"/>
<path d="M2315 3720 c-181 -40 -235 -67 -209 -107 15 -24 42 -21 149 12 74 23
109 29 195 29 89 1 111 -3 145 -21 78 -41 105 -95 105 -209 l0 -76 -27 5 c-16
4 -79 12 -140 18 -204 23 -353 -12 -448 -105 -69 -68 -94 -141 -77 -225 47
-226 364 -282 621 -110 32 21 61 39 65 39 3 0 6 -25 6 -55 l0 -56 111 3 c94 3
114 6 123 21 8 12 8 22 0 35 -9 13 -28 18 -83 20 l-71 3 0 287 c-1 309 -4 331
-55 397 -76 100 -227 135 -410 95z m343 -441 l42 -11 0 -88 0 -88 -51 -46
c-28 -26 -90 -65 -137 -89 -84 -41 -87 -42 -191 -42 -97 0 -110 2 -153 27 -50
30 -88 91 -88 141 0 91 99 179 233 207 54 12 290 4 345 -11z"/>
<path d="M3534 3725 c-145 -31 -224 -106 -224 -213 0 -64 17 -99 70 -144 49
-43 84 -54 253 -78 198 -29 261 -52 310 -109 39 -47 43 -84 15 -138 -48 -94
-161 -139 -328 -130 -160 8 -268 67 -285 154 -11 62 -37 79 -69 47 -23 -22
-23 -216 0 -238 27 -28 64 -12 64 27 0 10 3 17 8 15 4 -1 32 -15 62 -31 173
-86 436 -69 555 35 88 78 114 184 67 275 -50 95 -133 134 -369 168 -219 33
-273 62 -273 146 0 81 94 138 241 147 119 7 211 -21 263 -78 20 -22 36 -49 36
-61 0 -49 39 -76 68 -47 16 16 16 210 0 226 -19 19 -48 14 -59 -12 l-11 -23
-43 24 c-87 48 -232 64 -351 38z"/>
<path d="M4734 3725 c-145 -31 -224 -106 -224 -213 0 -64 17 -99 70 -144 49
-43 84 -54 253 -78 198 -29 261 -52 310 -109 39 -47 43 -84 15 -138 -48 -94
-161 -139 -328 -130 -160 8 -268 67 -285 154 -11 62 -37 79 -69 47 -23 -22
-23 -216 0 -238 27 -28 64 -12 64 27 0 10 3 17 8 15 4 -1 32 -15 62 -31 173
-86 436 -69 555 35 88 78 114 184 67 275 -50 95 -133 134 -369 168 -219 33
-273 62 -273 146 0 81 94 138 241 147 119 7 211 -21 263 -78 20 -22 36 -49 36
-61 0 -31 18 -59 38 -59 35 0 42 21 42 125 0 65 -4 105 -12 113 -19 19 -48 14
-59 -12 l-11 -23 -43 24 c-87 48 -232 64 -351 38z"/>
<path d="M7160 3729 c-119 -23 -264 -138 -315 -251 -81 -180 -43 -380 99 -516
76 -73 148 -110 247 -125 150 -23 290 25 397 137 105 109 146 236 123 378 -17
102 -50 169 -123 244 -114 119 -263 165 -428 133z m263 -107 c135 -67 210
-187 210 -337 0 -150 -75 -270 -211 -337 -61 -30 -74 -33 -162 -33 -82 0 -103
4 -152 27 -160 75 -249 241 -219 406 15 80 40 130 94 189 81 87 171 124 294
120 67 -3 92 -9 146 -35z"/>
<path d="M8675 3716 c-22 -7 -56 -21 -75 -31 -38 -20 -188 -133 -209 -159 -26
-31 -31 -16 -31 84 l0 100 -124 0 c-68 0 -131 -3 -140 -6 -9 -4 -16 -18 -16
-34 0 -36 13 -40 116 -40 l84 0 0 -345 0 -344 -116 -3 c-99 -3 -119 -6 -128
-20 -8 -13 -8 -23 0 -35 10 -17 40 -18 358 -21 359 -2 386 0 386 38 0 34 -32
40 -229 40 l-191 0 0 228 0 227 83 70 c163 140 238 185 308 185 35 0 96 -35
128 -73 7 -9 19 -17 27 -17 14 0 44 27 44 40 0 21 -69 85 -115 106 -55 26
-100 29 -160 10z"/>
<path d="M5532 3698 c-17 -17 -15 -55 4 -62 9 -3 29 -6 45 -6 21 0 30 -6 34
-22 24 -102 165 -735 165 -740 0 -5 22 -8 49 -8 l49 0 42 123 c23 67 63 182
87 255 25 72 48 132 51 132 4 0 48 -115 97 -255 l90 -255 46 0 c40 0 48 3 52
23 4 12 40 177 82 367 41 190 78 353 81 362 3 11 18 18 41 20 43 4 64 29 47
56 -10 15 -30 17 -148 20 -143 3 -176 -4 -176 -38 0 -28 30 -40 100 -40 54 0
61 -2 56 -17 -3 -10 -32 -146 -66 -303 -33 -157 -64 -294 -69 -304 -5 -14 -31
48 -96 227 l-88 247 -47 0 c-45 0 -49 -2 -59 -32 -7 -18 -44 -125 -83 -238
-64 -185 -88 -243 -88 -214 0 6 -31 149 -70 320 -38 170 -70 310 -70 312 0 1
27 2 61 2 69 0 99 12 99 40 0 11 -9 24 -19 30 -28 15 -284 13 -299 -2z"/>
<path d="M4688 2064 c-196 -64 -198 -65 -198 -93 0 -18 6 -31 16 -35 9 -4 76
12 148 34 72 23 139 43 149 46 16 5 17 -24 17 -520 l0 -526 -154 0 c-127 0
-157 -3 -170 -16 -9 -8 -16 -19 -16 -24 0 -5 7 -16 16 -24 13 -14 60 -16 359
-16 189 0 350 3 359 6 21 8 21 60 0 68 -9 3 -83 6 -165 6 l-149 0 0 580 c0
319 -3 580 -7 579 -5 0 -97 -30 -205 -65z"/>
<path d="M5750 1839 c0 -281 4 -319 36 -319 8 0 41 14 74 30 212 107 416 65
491 -102 20 -44 23 -69 23 -153 0 -87 -3 -108 -26 -156 -35 -76 -88 -133 -156
-166 -50 -25 -68 -28 -152 -28 -85 0 -102 3 -160 31 -36 17 -91 52 -122 77
-64 52 -82 57 -98 27 -14 -27 -1 -50 52 -92 63 -50 92 -67 164 -94 317 -119
607 100 581 439 -10 131 -71 242 -169 303 -57 36 -151 58 -225 51 -53 -5 -152
-33 -215 -61 -17 -8 -18 6 -18 203 l0 211 259 0 c223 0 262 2 275 16 9 8 16
19 16 24 0 5 -7 16 -16 24 -13 14 -56 16 -315 16 l-299 0 0 -281z"/>
<path d="M8632 2108 c-17 -17 -15 -55 4 -62 9 -3 45 -6 80 -6 l64 0 0 -230 0
-230 -59 59 c-278 278 -733 77 -733 -324 0 -334 329 -551 619 -409 31 15 82
53 114 85 l59 59 0 -85 0 -85 109 0 c102 0 111 2 125 22 20 28 20 33 0 52 -11
12 -35 16 -85 16 l-69 0 0 575 0 575 -108 0 c-71 0 -112 -4 -120 -12z m-69
-448 c74 -35 142 -102 179 -178 31 -62 33 -74 33 -167 0 -88 -3 -107 -27 -158
-33 -70 -115 -154 -183 -187 -42 -20 -65 -25 -140 -25 -77 0 -98 4 -147 27
-219 102 -282 392 -127 589 92 117 280 162 412 99z"/>
<path d="M2032 2028 c-7 -7 -12 -19 -12 -28 0 -30 23 -40 92 -40 l68 0 0 -495
0 -494 -71 -3 c-55 -2 -74 -7 -83 -20 -8 -13 -8 -23 0 -35 10 -16 36 -18 277
-21 231 -2 267 0 281 14 20 19 20 29 0 48 -13 13 -43 16 -170 16 l-154 0 0
240 0 240 150 0 150 0 0 -63 c0 -65 11 -87 42 -87 31 0 38 35 38 190 0 155 -7
190 -38 190 -31 0 -42 -22 -42 -87 l0 -63 -150 0 -150 0 0 215 0 215 315 0
315 0 0 -106 c0 -110 9 -144 38 -144 37 0 42 19 42 177 l0 153 -463 0 c-347 0
-466 -3 -475 -12z"/>
<path d="M7217 1760 c-52 -14 -105 -42 -165 -89 -28 -23 -54 -41 -57 -41 -3 0
-5 25 -5 55 l0 55 -81 0 c-88 0 -119 -10 -119 -40 0 -25 29 -40 79 -40 l41 0
0 -345 0 -344 -61 -3 c-69 -3 -94 -22 -73 -55 10 -16 30 -18 179 -18 149 0
169 2 179 18 21 34 -4 52 -78 55 l-66 3 0 264 0 264 69 70 c83 84 134 112 218
119 114 9 205 -37 244 -122 17 -37 19 -70 19 -318 l0 -278 -44 0 c-24 0 -51
-3 -60 -6 -21 -8 -21 -60 0 -68 9 -3 75 -6 148 -6 139 0 156 5 156 46 0 26
-17 34 -76 34 l-44 0 0 278 c0 228 -3 287 -16 325 -22 65 -91 139 -155 167
-59 25 -173 35 -232 20z"/>
<path d="M3875 1746 c-22 -7 -56 -21 -75 -31 -38 -20 -188 -133 -209 -159 -26
-31 -31 -16 -31 84 l0 100 -124 0 c-68 0 -131 -3 -140 -6 -21 -8 -21 -60 0
-68 9 -3 54 -6 100 -6 l84 0 0 -345 0 -344 -116 -3 c-99 -3 -119 -6 -128 -20
-8 -13 -8 -23 0 -35 10 -17 40 -18 358 -21 359 -2 386 0 386 38 0 34 -32 40
-229 40 l-191 0 0 228 0 227 83 70 c163 140 238 185 308 185 35 0 96 -35 128
-73 7 -9 19 -17 27 -17 14 0 44 27 44 40 0 21 -69 85 -115 106 -55 26 -100 29
-160 10z"/>
</g>
</svg>
